<?xml version="1.0" standalone="no"?>
<!DOCTYPE svg PUBLIC "-//W3C//DTD SVG 20010904//EN"
 "http://www.w3.org/TR/2001/REC-SVG-20010904/DTD/svg10.dtd">
<svg version="1.0" xmlns="http://www.w3.org/2000/svg"
 width="281.000000pt" height="244.000000pt" viewBox="0 0 281.000000 244.000000"
 preserveAspectRatio="xMidYMid meet">

<g transform="translate(0.000000,244.000000) scale(0.100000,-0.100000)"
fill="#fff" stroke="none">
<path d="M1089 2415 c-211 -40 -403 -148 -518 -290 -158 -196 -195 -453 -94
-653 34 -68 124 -161 195 -201 99 -57 122 -43 218 134 41 76 80 144 86 153 9
12 21 -5 69 -94 31 -60 67 -119 78 -131 22 -25 74 -31 107 -13 11 6 47 64 81
130 33 66 64 120 67 120 4 0 38 -60 76 -133 38 -72 78 -144 88 -159 24 -35 75
-45 116 -24 33 17 42 34 42 78 0 34 -227 468 -266 507 -29 30 -85 32 -116 4
-11 -10 -46 -70 -78 -132 l-57 -115 -62 116 c-71 134 -88 152 -139 151 -49 -1
-61 -17 -171 -222 -51 -94 -97 -171 -101 -171 -5 0 -22 17 -39 38 -112 134
-88 362 55 521 164 182 469 264 729 195 197 -52 367 -187 477 -381 16 -28 35
-57 43 -63 8 -6 54 -15 104 -20 72 -7 102 -15 150 -41 150 -79 240 -252 212
-403 -39 -213 -208 -346 -423 -334 -65 4 -90 11 -151 41 -39 21 -85 37 -100
37 -18 0 -66 -23 -124 -60 -165 -103 -305 -147 -500 -157 -290 -14 -550 83
-764 284 -58 55 -74 65 -105 65 -60 0 -106 -60 -85 -114 12 -31 111 -127 193
-187 78 -56 199 -121 295 -157 331 -125 747 -84 1047 103 l49 31 44 -20 c212
-94 478 -44 643 121 217 218 224 556 15 788 -83 94 -217 164 -338 179 -51 7
-52 8 -97 77 -121 188 -317 328 -548 388 -102 27 -299 34 -403 14z"/>
<path d="M1156 424 c-19 -18 -19 -20 -6 -45 12 -21 40 -25 58 -7 18 18 14 46
-7 58 -25 13 -27 13 -45 -6z"/>
<path d="M91 401 c-6 -11 -11 -80 -11 -160 l0 -141 35 0 35 0 0 86 c0 47 4 83
9 80 4 -3 23 -42 42 -86 27 -65 37 -80 54 -80 18 0 30 17 63 87 l41 88 0 -87
1 -88 35 0 36 0 -3 158 -3 157 -33 3 c-32 3 -33 2 -76 -90 -23 -51 -46 -102
-50 -113 -7 -16 -14 -6 -42 55 -60 134 -67 145 -96 148 -18 2 -30 -3 -37 -17z"/>
<path d="M816 404 c-3 -9 -6 -81 -6 -160 l0 -144 35 0 34 0 3 101 3 101 78
-101 c60 -78 83 -101 101 -101 13 0 27 7 30 16 3 9 6 81 6 160 l0 144 -35 0
-35 0 0 -95 c0 -52 -3 -95 -7 -95 -5 0 -28 29 -53 63 -71 97 -100 127 -125
127 -13 0 -26 -7 -29 -16z"/>
<path d="M2400 363 c0 -44 -3 -54 -12 -45 -22 22 -94 14 -127 -14 -90 -76 -29
-228 84 -209 22 3 57 6 78 5 l37 -1 0 161 0 160 -30 0 c-30 0 -30 0 -30 -57z
m-10 -125 c13 -25 13 -31 0 -55 -22 -40 -82 -45 -105 -10 -18 29 -12 72 14 87
30 18 74 7 91 -22z"/>
<path d="M1560 355 c0 -31 -3 -35 -26 -35 -21 0 -25 -4 -22 -22 2 -15 11 -24
26 -26 21 -3 22 -8 22 -88 l0 -84 30 0 30 0 0 85 c0 84 0 85 25 85 34 0 37 47
3 52 -18 2 -24 11 -26 36 -3 28 -7 32 -33 32 -27 0 -29 -3 -29 -35z"/>
<path d="M1150 215 l0 -115 30 0 30 0 0 115 0 115 -30 0 -30 0 0 -115z"/>
<path d="M1267 323 c-4 -3 -7 -55 -7 -115 l0 -108 35 0 35 0 0 69 c0 79 15
104 59 99 35 -4 51 -40 51 -115 l0 -63 30 0 30 0 0 74 c0 87 -13 129 -45 150
-29 19 -96 21 -113 4 -9 -9 -12 -9 -12 0 0 13 -52 17 -63 5z"/>
<path d="M1732 314 c-59 -41 -69 -124 -21 -178 49 -56 119 -61 176 -12 l28 24
-28 11 c-19 8 -34 8 -47 1 -30 -16 -65 -12 -85 10 -18 20 -17 20 58 20 89 0
107 5 107 32 0 28 -26 74 -52 92 -29 21 -107 21 -136 0z m113 -54 c18 -20 17
-20 -45 -20 -62 0 -63 0 -45 20 10 11 30 20 45 20 15 0 35 -9 45 -20z"/>
<path d="M1950 215 l0 -115 35 0 35 0 0 66 c0 80 11 104 48 104 44 0 52 -16
52 -102 l0 -78 36 0 37 0 -5 91 c-5 82 -8 93 -34 120 -22 23 -36 29 -69 29
-22 0 -46 -5 -53 -12 -9 -9 -12 -9 -12 0 0 7 -14 12 -35 12 l-35 0 0 -115z"/>
<path d="M2524 296 c-103 -103 36 -264 157 -183 68 46 71 138 8 192 -24 19
-42 25 -81 25 -44 0 -54 -4 -84 -34z m142 -51 c19 -30 9 -73 -22 -87 -54 -25
-110 25 -86 77 22 47 80 52 108 10z"/>
<path d="M479 298 c5 -13 27 -63 49 -112 22 -49 38 -95 35 -103 -3 -8 -18 -17
-34 -20 -24 -4 -29 -11 -29 -34 0 -25 4 -29 29 -29 47 0 75 36 126 160 74 180
71 162 28 158 -34 -3 -37 -6 -57 -60 -12 -31 -24 -60 -28 -63 -3 -3 -17 22
-30 57 -23 60 -25 63 -61 66 -35 3 -36 2 -28 -20z"/>
</g>
</svg>
